<svg width="40" height="40" viewBox="0 0 40 40" fill="none" xmlns="http://www.w3.org/2000/svg">
<path d="M23.8794 32.6588C29.0212 32.6588 33.1894 28.4777 33.1894 23.3201C33.1894 18.1624 29.0212 13.9813 23.8794 13.9813C18.7376 13.9813 14.5694 18.1624 14.5694 23.3201C14.5694 28.4777 18.7376 32.6588 23.8794 32.6588Z" fill="#2F80ED"/>
<path d="M36.7731 10.0762C36.7825 10.0312 36.8 9.09125 36.8 9.09125C36.8 8.71375 36.4956 8.4075 36.1188 8.4075H33.0962C32.7694 8.4075 32.5075 8.645 32.4431 8.95625L31.3913 5.40563C31.2319 5.05063 30.4506 4.47438 29.9819 4.34438C28.5506 3.9475 26.2138 3.75 23.8788 3.75C21.5425 3.75 19.2056 3.9475 17.7737 4.34438C17.3056 4.47438 16.5238 5.05063 16.365 5.40563L15.0525 9.83563H13.8931V9.04C13.8935 8.70146 13.7593 8.37664 13.5202 8.13697C13.2812 7.89729 12.9567 7.76237 12.6181 7.76187H6.96C6.79238 7.76204 6.62643 7.79524 6.47165 7.85957C6.31686 7.92391 6.17627 8.01812 6.05792 8.13682C5.93957 8.25552 5.84577 8.39639 5.78189 8.55136C5.71801 8.70633 5.6853 8.87238 5.68563 9.04V9.83563H4.4375C2.6775 9.83563 1.25 11.2675 1.25 13.0325V30.7763C1.25 32.5406 2.67687 33.9725 4.4375 33.9725H16.5744C18.7202 35.4588 21.2691 36.2535 23.8794 36.25C26.5913 36.25 29.1069 35.4081 31.1838 33.9725H35.5625C37.3225 33.9725 38.75 32.5406 38.75 30.7763V13.0325C38.7502 12.3994 38.5624 11.7805 38.2105 11.2542C37.8585 10.7279 37.3583 10.3179 36.7731 10.0762V10.0762ZM23.8794 35.0744C17.4169 35.0744 12.16 29.8019 12.16 23.32C12.16 16.8381 17.4169 11.565 23.8794 11.565C30.3406 11.565 35.5975 16.8381 35.5975 23.32C35.5975 29.8019 30.3406 35.0744 23.8794 35.0744Z" fill="#2F80ED"/>
</svg>
