<svg width="40" height="40" viewBox="0 0 40 40" fill="none" xmlns="http://www.w3.org/2000/svg">
<path d="M33.3333 3.33331H13.3333C11.5 3.33331 9.99998 4.83331 9.99998 6.66665V26.6666C9.99998 28.5 11.5 30 13.3333 30H33.3333C35.1666 30 36.6666 28.5 36.6666 26.6666V6.66665C36.6666 4.83331 35.1666 3.33331 33.3333 3.33331ZM30 11.6666H25V20.8333C25 21.9384 24.561 22.9982 23.7796 23.7796C22.9982 24.561 21.9384 25 20.8333 25C19.7282 25 18.6684 24.561 17.887 23.7796C17.1056 22.9982 16.6666 21.9384 16.6666 20.8333C16.6666 19.7282 17.1056 18.6684 17.887 17.887C18.6684 17.1056 19.7282 16.6666 20.8333 16.6666C21.7833 16.6666 22.6333 16.9833 23.3333 17.5166V8.33331H30V11.6666ZM6.66665 9.99998H3.33331V33.3333C3.33331 35.1666 4.83331 36.6666 6.66665 36.6666H30V33.3333H6.66665V9.99998Z" fill="#2F80ED"/>
</svg>
