<svg width="40" height="40" viewBox="0 0 40 40" fill="none" xmlns="http://www.w3.org/2000/svg">
<path d="M18.8889 10.5333V8.78888C18.8889 5.98888 14.7 4.52222 10.5556 4.52222C6.41112 4.52222 2.22223 5.99999 2.22223 8.78888V20.2667C2.22223 22.6667 5.30001 24.0778 8.77778 24.4444L8.8889 24.3667V16.9222C8.8889 13.4222 13 10.8222 18.8889 10.5333Z" fill="#2F80ED"/>
<path d="M21.1111 15.0667C20.5876 14.1591 20.4325 13.0852 20.6778 12.0667H19.9444C14.4666 12.0667 10.3333 14.1555 10.3333 16.9333V30.6C10.3333 33.3778 14.4666 35.4667 19.9444 35.4667C25.4222 35.4667 29.5555 33.3778 29.5555 30.6V28.2C26.7932 30.2271 23.4233 31.2538 20 31.1111C17.7286 31.1502 15.4692 30.7736 13.3333 30V28.0778C15.4379 28.9799 17.7106 29.4231 20 29.3778C24.6778 29.3778 28.5 28.0111 29.5889 25.7889V22.7444C27.5555 24.4444 24.1333 25.5555 20 25.5555C17.7286 25.5947 15.4692 25.2181 13.3333 24.4444V22.4778C15.4379 23.3799 17.7106 23.8231 20 23.7778C24.6778 23.7778 28.5 22.5444 29.5889 20.3222V17.1111H24.7C23.9744 17.1184 23.2598 16.933 22.6293 16.5738C21.9988 16.2146 21.4749 15.6945 21.1111 15.0667Z" fill="#2F80ED"/>
<path d="M24.4444 5.33331C22.5 6.03331 21.1111 7.19998 21.1111 8.79998V10.5333H21.4111L24.4444 5.33331Z" fill="#2F80ED"/>
<path d="M37.4222 17.1111H31.1111V24.3666L31.1666 24.4333C34.6444 24.0778 37.7222 22.6555 37.7222 20.2666V17.0889L37.4222 17.1111Z" fill="#2F80ED"/>
<path d="M29.8333 1.26665L23.4778 12.2222C23.3299 12.4392 23.245 12.693 23.2325 12.9553C23.22 13.2176 23.2804 13.4783 23.4069 13.7084C23.5335 13.9385 23.7213 14.1291 23.9495 14.259C24.1778 14.3889 24.4375 14.4531 24.7 14.4444H37.4222C37.6847 14.4531 37.9444 14.3889 38.1726 14.259C38.4009 14.1291 38.5887 13.9385 38.7152 13.7084C38.8418 13.4783 38.9022 13.2176 38.8897 12.9553C38.8772 12.693 38.7923 12.4392 38.6444 12.2222L32.2889 1.26665C32.1635 1.05227 31.9842 0.87444 31.7688 0.75086C31.5534 0.62728 31.3094 0.562256 31.0611 0.562256C30.8128 0.562256 30.5687 0.62728 30.3533 0.75086C30.1379 0.87444 29.9587 1.05227 29.8333 1.26665Z" fill="#2F80ED"/>
</svg>
