<svg width="58" height="48" viewBox="0 0 58 48" fill="none" xmlns="http://www.w3.org/2000/svg">
<path d="M8.93776 4.48769C13.6645 1.62404 19.6036 0.986906 24.663 0.621128L26.6791 9.8953C23.615 10.5881 20.6146 11.424 18.401 12.9571C17.2252 13.7715 16.2592 14.7899 15.6228 16.0961C14.9864 17.4024 14.6948 18.9653 14.8202 20.8455L14.8513 21.3123H15.3191H22.4344V47.4084H0.5L0.499999 22.5834C0.499999 22.5833 0.5 22.5833 0.5 22.5832C0.504049 12.665 4.13131 7.39962 8.93776 4.48769ZM39.6644 4.48771C44.3912 1.62406 50.3302 0.986906 55.3897 0.621128L57.4058 9.8953C54.3418 10.5881 51.3413 11.424 49.1277 12.9571C47.9519 13.7715 46.9859 14.7899 46.3495 16.0961C45.7131 17.4024 45.4215 18.9653 45.5469 20.8455L45.578 21.3123H46.0458H53.1611V47.4084H31.2267V22.5834C31.2267 22.5833 31.2267 22.5833 31.2267 22.5832C31.2307 12.665 34.858 7.39964 39.6644 4.48771Z" fill="#2F80ED" stroke="black"/>
</svg>
